<?xml version="1.0" standalone="no"?>
<!DOCTYPE svg PUBLIC "-//W3C//DTD SVG 20010904//EN"
 "http://www.w3.org/TR/2001/REC-SVG-20010904/DTD/svg10.dtd">
<svg version="1.0" xmlns="http://www.w3.org/2000/svg"
 width="1024.000000pt" height="1024.000000pt" viewBox="0 0 1024.000000 1024.000000"
 preserveAspectRatio="xMidYMid meet">
<metadata>
Created by potrace 1.15, written by Peter Selinger 2001-2017
</metadata>
<g transform="translate(0.000000,1024.000000) scale(0.100000,-0.100000)"
fill="#000000" stroke="none">
<path d="M5047 10099 c-21 -5 -50 -15 -65 -23 -30 -16 -366 -354 -1027 -1031
-584 -598 -1655 -1680 -3085 -3117 -332 -335 -610 -618 -617 -631 -7 -12 -12
-18 -13 -12 0 22 -81 -72 -101 -119 -30 -69 -23 -181 14 -230 25 -32 608 -614
628 -627 6 -3 132 -127 282 -275 150 -148 398 -393 552 -544 154 -151 512
-504 795 -785 530 -526 701 -693 1530 -1505 266 -261 612 -601 768 -755 306
-303 327 -319 421 -317 104 3 105 4 426 321 495 489 1023 1008 1493 1469 145
141 489 482 765 757 276 276 599 595 717 710 118 115 375 367 570 560 195 193
502 495 682 672 356 350 348 339 348 457 0 75 -25 128 -88 188 -89 87 -2191
2204 -2777 2799 -154 156 -490 498 -745 759 -570 582 -1140 1160 -1199 1216
-66 63 -171 87 -274 63z m159 -127 c19 -10 311 -303 729 -732 121 -124 367
-373 546 -555 179 -181 453 -460 610 -620 368 -375 1429 -1445 2254 -2272 382
-384 655 -666 663 -685 30 -71 24 -79 -286 -382 -158 -155 -451 -443 -652
-641 -417 -411 -625 -616 -825 -810 -77 -74 -347 -341 -600 -593 -490 -487
-865 -857 -1485 -1462 -212 -206 -514 -503 -673 -660 -310 -307 -333 -325
-395 -298 -31 13 -131 108 -612 582 -291 287 -1182 1160 -1236 1211 -17 17
-238 235 -490 485 -253 250 -682 673 -954 940 -272 266 -522 511 -556 545 -33
33 -251 247 -484 475 -543 532 -518 507 -522 538 -6 50 10 92 51 137 23 25 41
52 41 61 0 10 6 14 14 11 14 -6 653 632 2307 2303 922 932 1338 1354 1684
1710 355 365 712 718 731 723 30 7 119 0 140 -11z"/>
<path d="M4593 7919 c-72 -28 -155 -106 -192 -180 -42 -84 -54 -155 -49 -284
4 -89 10 -122 31 -174 33 -78 81 -139 144 -179 48 -31 158 -66 174 -56 21 13
9 61 -21 82 l-30 23 0 340 0 340 31 28 c21 20 30 36 27 52 -4 32 -46 35 -115
8z"/>
<path d="M4759 7936 c-12 -12 4 -67 22 -76 10 -6 22 -25 26 -43 4 -17 6 -175
3 -349 l-5 -318 -26 -24 c-20 -18 -25 -31 -21 -54 4 -29 6 -31 36 -25 172 33
292 168 316 358 29 229 -54 422 -216 501 -52 25 -124 41 -135 30z"/>
<path d="M3299 7918 c-33 -13 -34 -37 -3 -66 26 -24 40 -67 133 -410 l105
-383 70 3 70 3 37 150 38 150 -60 223 c-32 123 -59 229 -59 236 0 8 11 21 25
30 32 21 33 54 1 65 -27 11 -328 9 -357 -1z"/>
<path d="M3814 7923 c-6 -5 -27 -75 -47 -158 l-35 -150 60 -225 c32 -124 66
-249 74 -277 l15 -53 69 0 68 0 20 78 c12 42 28 107 37 143 l17 67 -72 273
c-40 151 -76 280 -80 288 -8 15 -108 26 -126 14z"/>
<path d="M4100 7921 c-47 -8 -52 -39 -10 -64 16 -10 33 -29 36 -43 4 -13 -5
-72 -20 -132 -25 -101 -25 -110 -12 -161 8 -29 17 -55 19 -57 2 -3 19 51 36
118 58 222 59 224 96 257 20 17 40 31 45 31 6 0 10 11 10 24 0 20 -6 24 -46
30 -53 7 -104 6 -154 -3z"/>
<path d="M5223 7923 c-12 -2 -24 -11 -27 -19 -6 -17 3 -44 15 -44 5 0 18 -9
29 -20 19 -19 20 -33 20 -344 0 -178 -3 -332 -6 -341 -4 -9 -17 -21 -31 -26
-29 -11 -39 -34 -23 -54 17 -21 376 -22 405 -1 25 18 14 42 -30 60 l-35 15 0
384 c0 350 -2 385 -17 391 -17 7 -260 5 -300 -1z"/>
<path d="M5601 7922 c-6 -2 -11 -19 -11 -37 0 -25 5 -35 20 -40 43 -14 51 -44
48 -176 l-3 -124 -32 -20 c-25 -16 -32 -27 -33 -52 0 -18 5 -33 10 -33 6 0 22
-11 35 -25 23 -23 25 -31 25 -132 1 -156 28 -208 124 -234 51 -14 128 -3 168
25 41 27 80 84 76 111 -4 26 -40 31 -62 9 -9 -9 -19 -15 -21 -13 -2 2 -5 36
-6 74 -5 141 -32 185 -132 212 l-58 17 58 26 c66 31 95 59 118 112 46 113 -15
244 -131 281 -47 15 -169 27 -193 19z"/>
<path d="M6168 7922 c-47 -3 -63 -17 -52 -47 3 -8 15 -17 25 -20 11 -4 24 -18
30 -32 10 -27 12 -624 2 -662 -3 -12 -16 -27 -30 -32 -29 -11 -39 -34 -23 -54
18 -22 372 -22 390 0 16 20 6 43 -25 57 l-25 11 0 348 0 348 30 16 c30 16 40
48 19 61 -12 7 -259 12 -341 6z"/>
<path d="M6660 7920 c-37 -4 -46 -9 -48 -27 -3 -18 5 -27 33 -40 38 -18 52
-47 40 -83 -4 -12 -47 -78 -96 -147 -57 -82 -89 -136 -89 -153 0 -14 20 -86
45 -160 25 -74 45 -142 45 -152 0 -9 -9 -22 -20 -28 -24 -13 -27 -55 -4 -64
20 -8 358 -8 378 0 24 9 20 49 -7 61 -19 9 -43 62 -126 278 l-102 267 27 39
c42 62 89 104 138 128 57 26 68 47 36 73 -19 15 -37 18 -114 16 -50 -2 -111
-5 -136 -8z"/>
<path d="M4497 6503 c-17 -17 -6 -53 21 -65 l27 -13 3 -347 2 -347 -30 -16
c-37 -19 -42 -59 -7 -69 28 -7 325 -8 354 0 41 11 39 60 -3 70 -13 4 -27 16
-29 28 -3 11 -4 169 -3 351 l3 330 28 13 c34 16 44 37 27 57 -10 12 -46 15
-200 15 -102 0 -190 -3 -193 -7z"/>
<path d="M5012 6498 c-20 -20 -14 -37 26 -62 32 -20 62 -65 174 -258 74 -128
175 -302 224 -386 l89 -152 85 2 85 3 3 132 c3 156 19 115 -196 488 l-139 240
-169 3 c-123 2 -173 -1 -182 -10z"/>
<path d="M5541 6497 c-16 -20 -4 -45 31 -63 45 -23 58 -67 58 -193 0 -102 2
-113 27 -156 16 -25 31 -45 35 -45 5 0 8 72 8 159 0 88 4 171 10 185 5 14 25
36 45 48 27 18 35 29 33 48 -3 25 -4 25 -119 28 -90 2 -119 -1 -128 -11z"/>
<path d="M5090 6030 c0 -266 -4 -286 -60 -315 -38 -20 -40 -52 -4 -65 14 -6
61 -10 104 -10 130 0 167 31 94 78 -57 37 -64 67 -64 275 0 180 -1 186 -26
231 -14 25 -30 46 -35 46 -5 0 -9 -102 -9 -240z"/>
<path d="M3920 5101 c-54 -17 -108 -51 -152 -99 -85 -90 -118 -188 -118 -342
1 -109 11 -161 46 -236 48 -102 160 -186 267 -200 47 -7 47 -7 47 22 0 20 -10
38 -30 56 l-30 26 0 337 0 337 30 26 c20 18 30 36 30 54 0 25 -3 28 -32 27
-18 0 -44 -4 -58 -8z"/>
<path d="M4060 5080 c0 -21 9 -38 28 -55 l27 -23 0 -337 0 -337 -27 -23 c-20
-17 -28 -34 -28 -56 0 -32 0 -32 43 -25 110 18 217 101 268 210 76 163 56 400
-46 539 -53 72 -166 137 -236 137 -26 0 -29 -4 -29 -30z"/>
<path d="M4692 5079 c-140 -70 -221 -226 -222 -424 0 -141 40 -253 118 -332
50 -50 150 -103 195 -103 24 0 27 4 27 33 0 21 -8 41 -20 52 -19 17 -20 31
-20 357 l0 339 25 25 c15 15 25 36 25 54 0 27 -3 30 -33 30 -19 0 -61 -14 -95
-31z"/>
<path d="M4872 5079 c3 -30 7 -34 41 -41 20 -4 48 -15 62 -24 32 -21 87 -106
112 -174 19 -49 24 -55 49 -55 l29 0 3 163 c2 161 2 162 -20 162 -12 0 -32
-10 -45 -22 -23 -21 -24 -21 -78 -4 -30 9 -78 20 -106 23 l-50 6 3 -34z"/>
<path d="M7139 5091 c-72 -28 -115 -67 -149 -134 -60 -120 -33 -262 64 -342
24 -19 95 -59 158 -89 124 -59 158 -89 158 -140 0 -42 -20 -67 -61 -81 -30
-10 -34 -17 -37 -50 l-3 -38 50 6 c165 20 283 158 268 317 -10 119 -70 184
-240 265 -141 66 -167 88 -167 144 0 35 5 44 40 72 30 24 40 40 40 61 0 26 -3
28 -37 28 -21 -1 -59 -9 -84 -19z"/>
<path d="M7300 5077 c0 -29 5 -36 44 -54 55 -27 105 -86 131 -154 25 -63 50
-83 71 -55 20 28 20 268 0 285 -16 13 -56 -1 -56 -19 0 -15 -30 -12 -88 10
-29 11 -63 20 -77 20 -22 0 -25 -5 -25 -33z"/>
<path d="M7869 5094 c-134 -41 -218 -209 -173 -350 29 -93 82 -142 238 -218
117 -57 135 -70 150 -101 27 -56 3 -104 -60 -125 -30 -10 -34 -16 -34 -47 l0
-36 51 6 c102 12 203 80 245 163 26 53 27 204 2 250 -36 67 -101 118 -208 164
-119 52 -180 101 -180 146 0 36 24 72 56 84 19 8 24 17 24 45 0 33 -2 35 -32
34 -18 0 -54 -7 -79 -15z"/>
<path d="M8030 5075 c0 -29 5 -37 27 -46 69 -26 111 -75 144 -168 18 -53 40
-71 63 -52 13 11 16 37 16 141 0 168 -7 185 -57 138 l-23 -22 -68 22 c-95 30
-102 29 -102 -13z"/>
<path d="M1958 5089 c-28 -16 -22 -47 12 -64 17 -9 30 -23 30 -33 1 -15 0
-620 0 -662 0 -9 -13 -21 -30 -27 -35 -13 -41 -47 -11 -63 12 -6 93 -10 195
-10 162 0 178 2 196 20 25 25 17 45 -23 57 l-32 9 -5 389 -5 390 -155 2 c-93
2 -162 -1 -172 -8z"/>
<path d="M2340 5066 c0 -29 5 -38 29 -50 16 -9 31 -23 35 -31 10 -27 7 -281
-4 -310 -5 -14 -21 -30 -35 -35 -20 -8 -25 -16 -25 -46 l0 -37 68 6 c79 8 122
21 174 54 126 78 144 293 33 399 -49 47 -107 70 -207 80 l-68 6 0 -36z"/>
<path d="M2790 5093 c-38 -15 -32 -46 11 -69 l29 -15 0 -344 0 -344 -30 -16
c-37 -19 -42 -60 -7 -69 37 -10 344 -7 372 4 37 14 31 51 -10 65 -16 5 -33 14
-37 20 -4 5 -8 182 -8 393 l0 382 -152 -1 c-84 0 -160 -3 -168 -6z"/>
<path d="M3167 5094 c-19 -19 -6 -60 28 -87 l36 -28 -3 -132 -3 -132 -32 -20
c-44 -27 -44 -61 1 -97 l34 -27 3 -124 c4 -117 5 -125 32 -160 38 -50 75 -67
147 -67 73 0 127 24 164 73 29 38 33 69 11 87 -13 11 -20 9 -38 -9 -13 -11
-26 -21 -30 -21 -4 0 -7 39 -7 86 0 130 -31 176 -143 209 l-42 12 50 22 c91
40 135 103 135 193 -1 94 -44 159 -130 196 -46 20 -200 39 -213 26z"/>
<path d="M5318 5089 c-28 -16 -22 -47 12 -64 l30 -16 0 -344 0 -344 -30 -16
c-34 -18 -40 -49 -11 -65 25 -13 341 -13 375 0 38 14 34 48 -8 65 -18 8 -36
22 -40 30 -3 9 -6 185 -6 391 l0 374 -152 0 c-85 0 -161 -5 -170 -11z"/>
<path d="M5698 5094 c-5 -4 -8 -20 -8 -35 0 -20 8 -33 30 -46 39 -23 45 -45
45 -169 0 -108 -10 -143 -48 -159 -13 -6 -23 -21 -25 -37 -3 -21 3 -30 26 -42
16 -8 33 -23 37 -33 4 -10 10 -70 12 -133 6 -127 16 -156 65 -192 28 -19 45
-23 114 -23 73 0 84 3 118 29 66 50 90 115 48 131 -8 3 -25 -3 -37 -15 -12
-11 -25 -17 -28 -13 -4 3 -7 44 -7 90 0 123 -28 164 -134 195 l-48 14 65 32
c75 37 104 74 116 150 16 103 -32 189 -128 230 -48 21 -200 40 -213 26z"/>
<path d="M6223 5090 c-32 -13 -29 -46 5 -62 l27 -13 3 -350 2 -351 -30 -11
c-35 -13 -41 -47 -10 -63 12 -6 78 -9 172 -8 l153 3 0 430 0 430 -150 2 c-82
1 -160 -2 -172 -7z"/>
<path d="M6604 5086 c-14 -36 1 -58 50 -77 61 -23 98 -57 127 -120 25 -53 44
-66 66 -48 10 9 13 39 11 133 l-3 121 -123 3 c-100 2 -123 0 -128 -12z"/>
<path d="M6676 4795 c-10 -25 -31 -56 -47 -67 -23 -17 -29 -30 -29 -58 0 -30
5 -39 25 -48 14 -6 32 -29 41 -49 28 -65 31 -68 55 -68 l24 0 0 165 0 165 -26
3 c-23 3 -28 -3 -43 -43z"/>
<path d="M4850 4655 c-17 -21 -5 -44 30 -56 39 -14 43 -32 38 -169 -3 -102 -5
-113 -26 -128 -13 -10 -23 -30 -25 -47 -2 -27 1 -30 28 -33 44 -4 142 29 208
71 l57 37 0 123 c0 111 2 126 20 142 24 22 26 60 4 69 -9 3 -84 6 -169 6 -123
0 -155 -3 -165 -15z"/>
<path d="M6971 4536 c-8 -9 -11 -60 -9 -157 3 -142 3 -144 26 -147 13 -2 33 4
44 14 19 18 22 18 81 -4 89 -32 107 -30 107 11 0 28 -6 35 -45 56 -52 28 -104
93 -130 166 -28 76 -48 93 -74 61z"/>
<path d="M7690 4531 c-5 -11 -10 -74 -10 -141 0 -67 5 -130 10 -141 13 -23 43
-25 60 -4 16 20 30 19 104 -7 73 -25 99 -20 94 19 -2 21 -12 32 -39 45 -54 25
-114 100 -144 179 -28 73 -53 90 -75 50z"/>
<path d="M6795 4458 c-33 -84 -85 -132 -160 -148 -26 -5 -30 -10 -30 -40 l0
-35 130 0 130 0 3 110 c3 135 -1 155 -32 155 -19 0 -27 -9 -41 -42z"/>
<path d="M5225 3653 c-88 -20 -164 -76 -196 -148 -23 -51 -25 -161 -4 -213 20
-47 78 -108 128 -133 120 -62 272 -14 345 109 23 41 27 58 27 127 0 70 -4 86
-28 128 -37 62 -106 112 -176 126 -56 11 -63 12 -96 4z"/>
<path d="M5410 3118 c-19 -13 -44 -38 -56 -56 -22 -31 -41 -108 -31 -118 9 -9
61 23 96 60 63 65 150 55 187 -22 22 -48 7 -96 -50 -154 -41 -43 -152 -108
-184 -108 -10 0 -13 -7 -8 -22 14 -53 39 -319 30 -328 -5 -5 -36 -10 -69 -11
l-60 -3 -3 81 -3 82 38 3 38 3 3 68 3 67 -149 0 c-141 0 -150 1 -155 20 -5 19
-14 20 -207 20 -193 0 -202 -1 -207 -20 -5 -19 -16 -20 -262 -22 l-256 -3 0
-65 0 -65 38 -3 37 -3 0 -525 0 -524 90 0 90 0 0 445 0 445 360 0 c313 0 360
-2 360 -15 0 -8 -8 -15 -17 -15 -26 0 -80 -35 -94 -62 -13 -23 -24 -63 -129
-465 l-53 -203 17 -45 c21 -54 63 -86 122 -93 53 -6 96 11 129 50 l25 30 0
-36 0 -36 90 0 90 0 2 293 3 292 60 7 c33 4 125 14 205 23 120 13 150 19 181
39 88 59 113 152 106 400 -4 162 -8 193 -35 293 -36 129 -58 178 -109 234 -47
52 -103 80 -172 86 -47 4 -61 1 -91 -19z"/>
<path d="M5425 2989 c-51 -52 -77 -65 -158 -80 -76 -14 -138 -6 -295 37 -107
30 -138 25 -167 -30 -38 -71 3 -120 135 -160 125 -37 251 -51 344 -37 119 17
182 47 254 117 54 54 62 67 62 100 0 55 -40 94 -95 94 -35 0 -47 -6 -80 -41z"/>
<path d="M6056 3004 c-45 -224 -82 -649 -74 -864 l3 -95 -290 -2 -290 -1 -3
-53 c-2 -29 2 -63 8 -75 8 -13 12 -95 13 -230 l2 -209 67 -3 67 -3 3 78 3 78
227 3 c254 3 230 10 243 -78 12 -82 9 -80 82 -80 64 0 65 1 59 24 -3 13 -15
102 -27 197 -26 224 -36 618 -20 829 12 152 43 410 56 461 8 30 0 35 -74 45
-48 6 -49 6 -55 -22z m-56 -1138 c0 -23 3 -71 6 -105 l7 -61 -224 2 -224 3 -3
103 -3 102 221 0 220 0 0 -44z"/>
</g>
</svg>
